#N canvas 216 219 716 574 10;
#X text 169 128 Hold PGM A to enter PGM pages and modify the following
settings, f 64;
#N canvas 344 578 1081 502 element 0;
#X obj 106 119 vradio 15 1 0 2 empty empty Legato 0 -8 0 10 -262144
-1 -1 1;
#X obj 298 149 f;
#X obj 298 193 list trim;
#X obj 298 116 r \$0-get;
#X obj 298 215 s \$0-save;
#X obj 106 -16 r \$0-set;
#X obj 251 270 r \$0-GLOBALmidichannel;
#X obj 106 6 route legato;
#X obj 298 171 list prepend legato;
#X text 127 118 OFF;
#X text 127 133 ON;
#X obj 106 287 ctlout 118 1;
#X connect 0 0 1 1;
#X connect 0 0 11 0;
#X connect 1 0 8 0;
#X connect 2 0 4 0;
#X connect 3 0 1 0;
#X connect 5 0 7 0;
#X connect 6 0 11 2;
#X connect 7 0 0 0;
#X connect 8 0 2 0;
#X coords 0 -1 1 1 150 60 2 100 100;
#X restore 173 379 pd element;
#N canvas 312 537 1081 502 element 0;
#X obj 108 121 vradio 15 1 0 2 empty empty Portamento 0 -8 0 10 -262144
-1 -1 1;
#X text 127 121 OFF;
#X text 127 136 ON;
#X obj 426 76 f;
#X obj 467 301 list trim;
#X obj 382 37 r \$0-get;
#X obj 467 323 s \$0-save;
#X obj 106 -16 r \$0-set;
#X obj 108 427 ctlout 65 1;
#X obj 426 98 list prepend portamento;
#X obj 384 216 f;
#X obj 314 396 r \$0-GLOBALmidichannel;
#X floatatom 189 121 5 0 127 2 Portamento_time - -, f 5;
#X obj 382 184 i;
#X obj 307 310 ctlout 5 1;
#X obj 384 238 list prepend portamento_time;
#X obj 106 6 route portamento portamento_time;
#X obj 108 170 t f f f;
#X obj 189 232 spigot;
#X obj 131 201 sel 1;
#X obj 189 254 f;
#X connect 0 0 3 1;
#X connect 0 0 17 0;
#X connect 3 0 9 0;
#X connect 4 0 6 0;
#X connect 5 0 3 0;
#X connect 5 0 10 0;
#X connect 7 0 16 0;
#X connect 9 0 4 0;
#X connect 10 0 15 0;
#X connect 11 0 14 2;
#X connect 11 0 8 2;
#X connect 12 0 13 0;
#X connect 12 0 18 0;
#X connect 13 0 14 0;
#X connect 13 0 10 1;
#X connect 15 0 4 0;
#X connect 16 0 0 0;
#X connect 16 1 12 0;
#X connect 17 0 8 0;
#X connect 17 1 19 0;
#X connect 17 2 18 1;
#X connect 18 0 20 0;
#X connect 19 0 20 0;
#X connect 20 0 14 0;
#X coords 0 -1 1 1 200 60 2 100 100;
#X restore 172 54 pd element;
#N canvas 758 510 1081 502 element 0;
#X obj 108 121 vradio 15 1 0 2 empty empty Arp 0 -8 0 10 -262144 -1
-1 0;
#X text 127 121 OFF;
#X text 127 136 ON;
#X obj 506 31 f;
#X obj 584 206 list trim;
#X obj 506 -2 r \$0-get;
#X obj 584 228 s \$0-save;
#X obj 106 -16 r \$0-set;
#X obj 506 53 list prepend arp;
#X obj 106 287 ctlout 117 1;
#X obj 108 171 vradio 15 1 0 2 empty empty ArpType 0 -8 0 10 -262144
-1 -1 0;
#X obj 505 111 f;
#X obj 330 208 r \$0-GLOBALmidichannel;
#X obj 505 133 list prepend arp_type;
#X text 127 171 traditional;
#X text 127 186 latch & shift;
#X obj 476 287 ctlout 119 1;
#X obj 106 6 route arp arp_type;
#X connect 0 0 3 1;
#X connect 0 0 9 0;
#X connect 3 0 8 0;
#X connect 4 0 6 0;
#X connect 5 0 3 0;
#X connect 5 0 11 0;
#X connect 7 0 17 0;
#X connect 8 0 4 0;
#X connect 10 0 11 1;
#X connect 10 0 16 0;
#X connect 11 0 13 0;
#X connect 12 0 16 2;
#X connect 12 0 9 2;
#X connect 13 0 4 0;
#X connect 17 0 0 0;
#X connect 17 1 10 0;
#X coords 0 -1 1 1 150 110 2 100 100;
#X restore 173 159 pd element;
#N canvas 428 578 1081 502 element 0;
#X obj 108 121 vradio 15 1 0 2 empty empty Receive_MIDI_CLocK 0 -8
0 10 -262144 -1 -1 0;
#X obj 515 54 f;
#X obj 615 251 list trim;
#X obj 456 15 r \$0-get;
#X obj 615 273 s \$0-save;
#X obj 106 -16 r \$0-set;
#X obj 251 270 r \$0-GLOBALmidichannel;
#X text 129 120 OFF;
#X text 129 135 ON;
#X obj 106 328 ctlout 114 1;
#X obj 515 76 list prepend midi_clock;
#X obj 106 6 route midi_clock;
#X connect 0 0 1 1;
#X connect 0 0 9 0;
#X connect 1 0 10 0;
#X connect 2 0 4 0;
#X connect 3 0 1 0;
#X connect 5 0 11 0;
#X connect 6 0 9 2;
#X connect 10 0 2 0;
#X connect 11 0 0 0;
#X coords 0 -1 1 1 150 60 2 100 100;
#X restore 173 269 pd element;
#N canvas 602 171 1081 855 element 0;
#X obj 294 194 f;
#X obj 450 722 list trim;
#X obj 643 44 r \$0-get;
#X obj 450 744 s \$0-save;
#X obj 106 -16 r \$0-set;
#X obj 639 85 r \$0-GLOBALmidichannel;
#X obj 294 216 list prepend a_channel;
#X obj 496 189 ctlout 102 1;
#X floatatom 106 145 5 1 17 2 Channel_(17_for_OMNI) - -, f 5;
#X obj 294 170 i;
#X obj 106 183 vradio 15 1 0 4 empty empty CV 0 -8 0 10 -262144 -1
-1 0;
#X text 126 182 Note;
#X text 126 197 Velocity;
#X obj 492 255 ctlout 104 1;
#X text 126 212 Mod Wheel (CC1);
#X text 104 103 MIDI A;
#X obj 294 264 f;
#X obj 294 286 list prepend a_cv;
#X obj 106 270 vradio 15 1 0 4 empty empty Gate 0 -8 0 10 -262144 -1
-1 0;
#X text 126 269 Note ON;
#X text 126 284 Velocity > 64;
#X text 126 299 Mod Wheel > 64 (CC1);
#X obj 496 351 ctlout 106 1;
#X obj 294 364 f;
#X floatatom 106 360 5 0 127 2 Pitchbend_scale - -, f 5;
#X obj 492 428 ctlout 108 1;
#X obj 291 410 i;
#X obj 293 435 f;
#X obj 294 386 list prepend a_gate;
#X obj 294 457 list prepend a_pitchbend;
#X floatatom 106 400 5 0 127 2 Aftertouch_scale - -, f 5;
#X obj 492 517 ctlout 110 1;
#X floatatom 106 440 5 0 127 2 Minimum_velocity - -, f 5;
#X obj 493 616 ctlout 112 1;
#X obj 298 501 i;
#X obj 299 598 i;
#X obj 293 525 f;
#X obj 294 547 list prepend a_aftertouch;
#X obj 293 635 f;
#X obj 294 149 - 1;
#X obj 111 39 + 1;
#X obj 294 657 list prepend a_velocity;
#X obj 106 6 route a_channel a_cv a_gate a_pitchbend a_aftertouch a_velocity
, f 65;
#X text 125 228 LFO triangle;
#X text 125 315 LFO square;
#X obj 29 59 loadbang;
#X msg 29 81 set 1;
#X msg 29 141 set 0;
#X connect 0 0 6 0;
#X connect 1 0 3 0;
#X connect 2 0 0 0;
#X connect 2 0 16 0;
#X connect 2 0 23 0;
#X connect 2 0 27 0;
#X connect 2 0 36 0;
#X connect 2 0 38 0;
#X connect 4 0 42 0;
#X connect 5 0 7 2;
#X connect 5 0 13 2;
#X connect 5 0 22 2;
#X connect 5 0 25 2;
#X connect 5 0 31 2;
#X connect 5 0 33 2;
#X connect 6 0 1 0;
#X connect 8 0 39 0;
#X connect 9 0 0 1;
#X connect 9 0 7 0;
#X connect 10 0 13 0;
#X connect 10 0 16 1;
#X connect 16 0 17 0;
#X connect 17 0 1 0;
#X connect 18 0 22 0;
#X connect 18 0 23 1;
#X connect 23 0 28 0;
#X connect 24 0 26 0;
#X connect 26 0 25 0;
#X connect 26 0 27 1;
#X connect 27 0 29 0;
#X connect 28 0 1 0;
#X connect 29 0 1 0;
#X connect 30 0 34 0;
#X connect 32 0 35 0;
#X connect 34 0 31 0;
#X connect 34 0 36 1;
#X connect 35 0 33 0;
#X connect 35 0 38 1;
#X connect 36 0 37 0;
#X connect 37 0 1 0;
#X connect 38 0 41 0;
#X connect 39 0 9 0;
#X connect 40 0 8 0;
#X connect 41 0 1 0;
#X connect 42 0 40 0;
#X connect 42 1 10 0;
#X connect 42 2 18 0;
#X connect 42 3 24 0;
#X connect 42 4 30 0;
#X connect 42 5 32 0;
#X connect 45 0 46 0;
#X connect 45 0 47 0;
#X connect 46 0 8 0;
#X connect 47 0 10 0;
#X connect 47 0 18 0;
#X coords 0 -1 1 1 170 360 2 100 100;
#X restore 323 159 pd element;
#N canvas 388 225 839 855 element 1;
#X obj 294 194 f;
#X obj 450 722 list trim;
#X obj 643 44 r \$0-get;
#X obj 450 744 s \$0-save;
#X obj 106 -16 r \$0-set;
#X obj 638 80 r \$0-GLOBALmidichannel;
#X floatatom 106 145 5 1 17 2 Channel_(17_for_OMNI) - -, f 5;
#X obj 294 170 i;
#X obj 106 183 vradio 15 1 0 4 empty empty CV 0 -8 0 10 -262144 -1
-1 0;
#X text 126 182 Note;
#X text 126 197 Velocity;
#X text 126 212 Mod Wheel (CC1);
#X obj 294 264 f;
#X obj 106 270 vradio 15 1 0 4 empty empty Gate 0 -8 0 10 -262144 -1
-1 0;
#X text 126 269 Note ON;
#X text 126 284 Velocity > 64;
#X text 126 299 Mod Wheel > 64 (CC1);
#X obj 294 364 f;
#X floatatom 106 360 5 0 127 2 Pitchbend_scale - -, f 5;
#X obj 291 410 i;
#X obj 293 435 f;
#X floatatom 106 400 5 0 127 2 Aftertouch_scale - -, f 5;
#X floatatom 106 440 5 0 127 2 Minimum_velocity - -, f 5;
#X obj 298 501 i;
#X obj 299 598 i;
#X obj 293 525 f;
#X obj 293 635 f;
#X obj 294 149 - 1;
#X text 104 103 MIDI B;
#X obj 496 189 ctlout 103 1;
#X obj 492 255 ctlout 105 1;
#X obj 496 351 ctlout 107 1;
#X obj 492 428 ctlout 109 1;
#X obj 492 517 ctlout 111 1;
#X obj 493 616 ctlout 113 1;
#X obj 294 216 list prepend b_channel;
#X obj 294 286 list prepend b_cv;
#X obj 294 386 list prepend b_gate;
#X obj 294 457 list prepend b_pitchbend;
#X obj 295 547 list prepend b_aftertouch;
#X obj 294 657 list prepend b_velocity;
#X obj 106 28 + 1;
#X obj 106 6 route b_channel b_cv b_gate b_pitchbend b_aftertouch b_velocity
, f 65;
#X text 125 228 LFO triangle;
#X text 125 315 LFO square;
#X obj 29 59 loadbang;
#X msg 29 81 set 1;
#X msg 29 141 set 0;
#X connect 0 0 35 0;
#X connect 1 0 3 0;
#X connect 2 0 0 0;
#X connect 2 0 12 0;
#X connect 2 0 17 0;
#X connect 2 0 20 0;
#X connect 2 0 25 0;
#X connect 2 0 26 0;
#X connect 4 0 42 0;
#X connect 5 0 29 2;
#X connect 5 0 30 2;
#X connect 5 0 31 2;
#X connect 5 0 32 2;
#X connect 5 0 33 2;
#X connect 5 0 34 2;
#X connect 6 0 27 0;
#X connect 7 0 0 1;
#X connect 7 0 29 0;
#X connect 8 0 12 1;
#X connect 8 0 30 0;
#X connect 12 0 36 0;
#X connect 13 0 17 1;
#X connect 13 0 31 0;
#X connect 17 0 37 0;
#X connect 18 0 19 0;
#X connect 19 0 20 1;
#X connect 19 0 32 0;
#X connect 20 0 38 0;
#X connect 21 0 23 0;
#X connect 22 0 24 0;
#X connect 23 0 25 1;
#X connect 23 0 33 0;
#X connect 24 0 26 1;
#X connect 24 0 34 0;
#X connect 25 0 39 0;
#X connect 26 0 40 0;
#X connect 27 0 7 0;
#X connect 35 0 1 0;
#X connect 36 0 1 0;
#X connect 37 0 1 0;
#X connect 38 0 1 0;
#X connect 39 0 1 0;
#X connect 40 0 1 0;
#X connect 41 0 6 0;
#X connect 42 0 41 0;
#X connect 42 1 8 0;
#X connect 42 2 13 0;
#X connect 42 3 18 0;
#X connect 42 4 21 0;
#X connect 42 5 22 0;
#X connect 45 0 46 0;
#X connect 45 0 47 0;
#X connect 46 0 6 0;
#X connect 47 0 8 0;
#X connect 47 0 13 0;
#X coords 0 -1 1 1 170 360 2 100 100;
#X restore 493 159 pd element;
#N canvas 0 107 1201 973 presets 0;
#X msg 524 205 set;
#X obj 377 273 list trim;
#X obj 374 93 s \$0-get;
#X obj 377 196 r \$0-save;
#X obj 539 880 s \$0-set;
#X obj 179 140 vradio 15 1 0 10 empty empty save_to -10 -8 0 10 -261234
-1 -1 1;
#X obj 377 369 list prepend;
#X obj 127 140 vradio 15 1 0 10 empty empty load -4 -8 0 10 -204786
-1 -1 1;
#X msg 315 420 \$1 bang;
#X obj 58 446 list trim;
#X obj 58 367 r \$0-get;
#X obj 58 468 s \$0-save;
#X obj 17 103 route name;
#X symbolatom 106 311 16 0 0 2 preset_name - -, f 16;
#X obj 58 402 symbol;
#X obj 58 424 list prepend name symbol;
#X msg 678 102 name symbol factory \, b_channel 0 \, b_cv 0 \, b_gate
0 \, b_pitchbend 0 \, b_aftertouch 0 \, b_velocity 0 \, a_channel 0
\, a_cv 0 \, a_gate 0 \, a_pitchbend 0 \, a_aftertouch 0 \, a_velocity
0 \, midi_clock 0 \, tempo_div 1 \, arp 0 \, arp_type 0 \, portamento
0 \, portamento_time 0 \, legato 1 \,;
#X obj 377 219 list prepend add2;
#X obj 17 81 r \$0-set;
#X obj 377 295 t b a;
#X msg 377 324 addcomma;
#X msg 678 175 tempo_div 1 \, midi_clock 0 \, legato 1 \, arp 0 \,
arp_type 0 \, name symbol factory porta \, b_channel 0 \, b_cv 0 \,
b_gate 0 \, b_pitchbend 0 \, b_aftertouch 0 \, b_velocity 0 \, a_channel
0 \, a_cv 0 \, a_gate 0 \, a_pitchbend 0 \, a_aftertouch 0 \, a_velocity
0 \, portamento 1 \, portamento_time 65 \,;
#X msg 678 248 name symbol factory \, b_channel 0 \, b_cv 0 \, b_gate
0 \, b_pitchbend 0 \, b_aftertouch 0 \, b_velocity 0 \, a_channel 0
\, a_cv 0 \, a_gate 0 \, a_pitchbend 0 \, a_aftertouch 0 \, a_velocity
0 \, midi_clock 0 \, tempo_div 1 \, arp 0 \, arp_type 0 \, portamento
0 \, portamento_time 0 \, legato 1 \,;
#X msg 678 320 name symbol factory \, b_channel 0 \, b_cv 0 \, b_gate
0 \, b_pitchbend 0 \, b_aftertouch 0 \, b_velocity 0 \, a_channel 0
\, a_cv 0 \, a_gate 0 \, a_pitchbend 0 \, a_aftertouch 0 \, a_velocity
0 \, midi_clock 0 \, tempo_div 1 \, arp 0 \, arp_type 0 \, portamento
0 \, portamento_time 0 \, legato 1 \,;
#X msg 678 391 name symbol factory \, b_channel 0 \, b_cv 0 \, b_gate
0 \, b_pitchbend 0 \, b_aftertouch 0 \, b_velocity 0 \, a_channel 0
\, a_cv 0 \, a_gate 0 \, a_pitchbend 0 \, a_aftertouch 0 \, a_velocity
0 \, midi_clock 0 \, tempo_div 1 \, arp 0 \, arp_type 0 \, portamento
0 \, portamento_time 0 \, legato 1 \,;
#X msg 677 462 name symbol factory \, b_channel 0 \, b_cv 0 \, b_gate
0 \, b_pitchbend 0 \, b_aftertouch 0 \, b_velocity 0 \, a_channel 0
\, a_cv 0 \, a_gate 0 \, a_pitchbend 0 \, a_aftertouch 0 \, a_velocity
0 \, midi_clock 0 \, tempo_div 1 \, arp 0 \, arp_type 0 \, portamento
0 \, portamento_time 0 \, legato 1 \,;
#X msg 677 533 name symbol factory \, b_channel 0 \, b_cv 0 \, b_gate
0 \, b_pitchbend 0 \, b_aftertouch 0 \, b_velocity 0 \, a_channel 0
\, a_cv 0 \, a_gate 0 \, a_pitchbend 0 \, a_aftertouch 0 \, a_velocity
0 \, midi_clock 0 \, tempo_div 1 \, arp 0 \, arp_type 0 \, portamento
0 \, portamento_time 0 \, legato 1 \,;
#X msg 677 604 name symbol factory \, b_channel 0 \, b_cv 0 \, b_gate
0 \, b_pitchbend 0 \, b_aftertouch 0 \, b_velocity 0 \, a_channel 0
\, a_cv 0 \, a_gate 0 \, a_pitchbend 0 \, a_aftertouch 0 \, a_velocity
0 \, midi_clock 0 \, tempo_div 1 \, arp 0 \, arp_type 0 \, portamento
0 \, portamento_time 0 \, legato 1 \,;
#X obj 377 499 route 0 1 2 3 4 5 6 7 8 9;
#X msg 677 675 name symbol factory \, b_channel 0 \, b_cv 0 \, b_gate
0 \, b_pitchbend 0 \, b_aftertouch 0 \, b_velocity 0 \, a_channel 0
\, a_cv 0 \, a_gate 0 \, a_pitchbend 0 \, a_aftertouch 0 \, a_velocity
0 \, midi_clock 0 \, tempo_div 1 \, arp 0 \, arp_type 0 \, portamento
0 \, portamento_time 0 \, legato 1 \,;
#X msg 676 746 name symbol factory \, b_channel 0 \, b_cv 0 \, b_gate
0 \, b_pitchbend 0 \, b_aftertouch 0 \, b_velocity 0 \, a_channel 0
\, a_cv 0 \, a_gate 0 \, a_pitchbend 0 \, a_aftertouch 0 \, a_velocity
0 \, midi_clock 0 \, tempo_div 1 \, arp 0 \, arp_type 0 \, portamento
0 \, portamento_time 0 \, legato 1 \,;
#X text 105 103 PRESETS;
#X obj 65 32 loadbang;
#X msg 65 54 set no_name_yet;
#X text 155 139 1;
#X text 155 154 2;
#X text 155 169 3;
#X text 155 184 4;
#X text 155 199 5;
#X text 155 214 6;
#X text 155 230 7;
#X text 155 244 8;
#X text 155 259 9;
#X text 155 274 10;
#X obj 374 61 t b b f;
#X msg 520 41 set \, add2 name symbol no name;
#X connect 0 0 6 0;
#X connect 1 0 19 0;
#X connect 3 0 17 0;
#X connect 5 0 44 0;
#X connect 6 0 28 0;
#X connect 7 0 8 0;
#X connect 8 0 28 0;
#X connect 9 0 11 0;
#X connect 10 0 14 0;
#X connect 12 0 13 0;
#X connect 13 0 14 1;
#X connect 14 0 15 0;
#X connect 15 0 9 0;
#X connect 16 0 4 0;
#X connect 17 0 1 0;
#X connect 18 0 12 0;
#X connect 19 0 20 0;
#X connect 19 1 6 0;
#X connect 20 0 6 0;
#X connect 21 0 4 0;
#X connect 22 0 4 0;
#X connect 23 0 4 0;
#X connect 24 0 4 0;
#X connect 25 0 4 0;
#X connect 26 0 4 0;
#X connect 27 0 4 0;
#X connect 28 0 16 0;
#X connect 28 1 21 0;
#X connect 28 2 22 0;
#X connect 28 3 23 0;
#X connect 28 4 24 0;
#X connect 28 5 25 0;
#X connect 28 6 26 0;
#X connect 28 7 27 0;
#X connect 28 8 29 0;
#X connect 28 9 30 0;
#X connect 29 0 4 0;
#X connect 30 0 4 0;
#X connect 32 0 33 0;
#X connect 33 0 13 0;
#X connect 44 0 2 0;
#X connect 44 1 0 0;
#X connect 44 2 6 1;
#X connect 45 0 21 0;
#X connect 45 0 22 0;
#X connect 45 0 23 0;
#X connect 45 0 24 0;
#X connect 45 0 25 0;
#X connect 45 0 26 0;
#X connect 45 0 27 0;
#X connect 45 0 29 0;
#X connect 45 0 30 0;
#X coords 0 -1 1 1 125 230 2 100 100;
#X restore 21 54 pd presets;
#N canvas 1238 395 450 300 globalmidi 0;
#X floatatom 146 135 5 1 16 0 - - -, f 5;
#X obj 151 195 s \$0-GLOBALmidichannel;
#X text 108 109 SEND TO MIDI CH;
#X obj 226 24 loadbang;
#X msg 226 46 1;
#X connect 0 0 1 0;
#X connect 3 0 4 0;
#X connect 4 0 0 0;
#X coords 0 -1 1 1 125 60 2 100 100;
#X restore 21 284 pd globalmidi;
#X text 19 19 Page programmer for MakeNoise 0-coast;
#X text 19 493 Baptiste Chatel 2017;
#X text 18 535 https://github.com/bapch/0-coast-page-programmer;
#X text 19 514 baptiste.chatel@gmail.com;
#N canvas 428 578 1081 502 element 0;
#X obj 321 217 list trim;
#X obj 321 34 r \$0-get;
#X obj 321 239 s \$0-save;
#X obj 109 39 r \$0-set;
#X obj 562 247 r \$0-GLOBALmidichannel;
#X obj 321 168 f;
#X floatatom 108 123 5 1 127 2 Tempo_in_division - -, f 5;
#X obj 339 138 i;
#X obj 321 190 list prepend tempo_div;
#X obj 481 276 ctlout 116 1;
#X obj 109 61 route tempo_div;
#X obj 19 73 loadbang;
#X msg 19 95 set 1;
#X connect 0 0 2 0;
#X connect 1 0 5 0;
#X connect 3 0 10 0;
#X connect 4 0 9 2;
#X connect 5 0 8 0;
#X connect 6 0 7 0;
#X connect 7 0 5 1;
#X connect 7 0 9 0;
#X connect 8 0 0 0;
#X connect 10 0 6 0;
#X connect 11 0 12 0;
#X connect 12 0 6 0;
#X coords 0 -1 1 1 150 50 2 100 100;
#X restore 173 329 pd element;
